<svg xmlns="http://www.w3.org/2000/svg" viewBox="0 0 63 62"><defs><style>.cls-1{fill:#ffc300;}.cls-2{fill:#ffd766;}.cls-3{fill:#d1a000;}.cls-4{fill:#81d4fa;}.cls-5{fill:#b3e5fc;}.cls-6{fill:#1976d2;}.cls-7{fill:#fafafa;}.cls-8{fill:#eceff1;}.cls-9{fill:#4fc3f7;}.cls-10{fill:#1e88e5;}.cls-11{fill:#1565c0;}</style></defs><title>Recurso 1</title><g id="Capa_2" data-name="Capa 2"><g id="Capa_1-2" data-name="Capa 1"><polygon class="cls-1" points="56.5 62 6.5 62 6.5 0 44.5 0 56.5 12 56.5 62"/><rect class="cls-2" x="6.5" width="3" height="62"/><polygon class="cls-3" points="44.5 12 56.5 12 44.5 0 44.5 12"/><path class="cls-4" d="M58,17H32.5a5,5,0,0,0-5-5H5a5,5,0,0,0-5,5V57a5,5,0,0,0,5,5H58a5,5,0,0,0,5-5V22A5,5,0,0,0,58,17Z"/><path class="cls-5" d="M3,57V17a5,5,0,0,1,5-5H5a5,5,0,0,0-5,5V57a5,5,0,0,0,5,5H8A5,5,0,0,1,3,57Z"/><rect class="cls-6" y="28" width="63" height="24"/><path class="cls-7" d="M39.5,37h-5V32a1,1,0,0,0-1-1h-4a1,1,0,0,0-1,1v5h-5a1,1,0,0,0-1,1v4a1,1,0,0,0,1,1h5v5a1,1,0,0,0,1,1h4a1,1,0,0,0,1-1V43h5a1,1,0,0,0,1-1V38A1,1,0,0,0,39.5,37Z"/><path class="cls-8" d="M32.5,48a1,1,0,0,1-1,1h2a1,1,0,0,0,1-1V43h-2Z"/><path class="cls-8" d="M32.5,32v5h2V32a1,1,0,0,0-1-1h-2A1,1,0,0,1,32.5,32Z"/><path class="cls-8" d="M39.5,37h-2a1,1,0,0,1,1,1v4a1,1,0,0,1-1,1h2a1,1,0,0,0,1-1V38A1,1,0,0,0,39.5,37Z"/><path class="cls-9" d="M58,17H55a5,5,0,0,1,5,5V57a5,5,0,0,1-5,5h3a5,5,0,0,0,5-5V22A5,5,0,0,0,58,17Z"/><rect class="cls-10" y="28" width="3" height="24"/><rect class="cls-11" x="57" y="28" width="3" height="24"/></g></g></svg>