<svg xmlns="http://www.w3.org/2000/svg" viewBox="0 0 60 54"><defs><style>.cls-1{fill:#81d4fa;}.cls-2{fill:#4fc3f7;}.cls-3{fill:#b3e5fc;}.cls-4{fill:#1976d2;}.cls-5{fill:#1565c0;}</style></defs><title>Recurso 13</title><g id="Capa_2" data-name="Capa 2"><g id="Capa_1-2" data-name="Capa 1"><path class="cls-1" d="M52.19,3,39,0a1,1,0,0,0-1.22,1V2.75a5,5,0,0,1-5,5H27.5a5,5,0,0,1-5-5V1a1,1,0,0,0-1.22-1L7.83,3A10,10,0,0,0,0,12.78v3H12V51.5A2.5,2.5,0,0,0,14.5,54h31A2.5,2.5,0,0,0,48,51.5V15.75H60v-3A10,10,0,0,0,52.19,3Z"/><path class="cls-2" d="M28.37,17.92,14,20.92V13.75H12v23.8a11.47,11.47,0,0,0,1.65-.22l18-3.74a8,8,0,0,0-3.26-15.67Z"/><path class="cls-1" d="M11,35.61a11,11,0,0,1-11-11V15.75H12v7.62l16.78-3.49a6,6,0,0,1,2.44,11.75l-18,3.74A10.85,10.85,0,0,1,11,35.61Z"/><path class="cls-2" d="M31.63,17.92l14.37,3V13.75h2v23.8a11.47,11.47,0,0,1-1.65-.22l-18-3.74a8,8,0,0,1,3.26-15.67Z"/><path class="cls-1" d="M49,35.61a11,11,0,0,0,11-11V15.75H48v7.62L31.22,19.88a6,6,0,0,0-2.44,11.75l18,3.74A10.85,10.85,0,0,0,49,35.61Z"/><path class="cls-2" d="M52.19,3,39,0a1,1,0,0,0-1.06.43L49.19,3A10,10,0,0,1,57,12.76v3h3v-3A10,10,0,0,0,52.19,3Z"/><path class="cls-2" d="M57,15.75V24.6a11,11,0,0,1-9.47,10.89,10.57,10.57,0,0,0,1.49.12,11,11,0,0,0,11-11V15.75Z"/><path class="cls-3" d="M7.81,3,21,0a1,1,0,0,1,1.06.43L10.81,3A10,10,0,0,0,3,12.76v3H0v-3A10,10,0,0,1,7.81,3Z"/><path class="cls-3" d="M3,15.75V24.6a11,11,0,0,0,9.47,10.89,10.57,10.57,0,0,1-1.49.12,11,11,0,0,1-11-11V15.75Z"/><rect class="cls-4" x="27.25" y="12.25" width="6" height="28" rx="1" ry="1"/><rect class="cls-5" x="28.75" y="11.75" width="3" height="10" rx="1" ry="1" transform="translate(47 -13.5) rotate(90)"/><rect class="cls-5" x="28.75" y="30.61" width="3" height="10" rx="1" ry="1" transform="translate(65.86 5.36) rotate(90)"/></g></g></svg>