<svg xmlns="http://www.w3.org/2000/svg" viewBox="0 0 62 62"><defs><style>.cls-1{fill:#1976d2;}.cls-2{fill:#1565c0;}.cls-3{fill:#1e88e5;}.cls-4{fill:#81d4fa;}.cls-5{fill:#b3e5fc;}.cls-6{fill:#4fc3f7;}.cls-7{fill:#f72250;}.cls-8{fill:#b4193b;}.cls-9{fill:#f95e7f;}.cls-10{fill:#fafafa;}</style></defs><title>Recurso 2</title><g id="Capa_2" data-name="Capa 2"><g id="Capa_1-2" data-name="Capa 1"><rect class="cls-1" y="7" width="55" height="55" rx="5" ry="5"/><path class="cls-2" d="M50,7H47a5,5,0,0,1,5,5V57a5,5,0,0,1-5,5h3a5,5,0,0,0,5-5V12A5,5,0,0,0,50,7Z"/><path class="cls-3" d="M5,7H8a5,5,0,0,0-5,5V57a5,5,0,0,0,5,5H5a5,5,0,0,1-5-5V12A5,5,0,0,1,5,7Z"/><path class="cls-4" d="M22.37,20.47l-3.21-3.2a2.64,2.64,0,0,0-3.73,0l-3.35,3.35a8.76,8.76,0,0,0-2.58,6V27A25.53,25.53,0,0,0,35,52.5h.34a8.72,8.72,0,0,0,6-2.58l3.36-3.35a2.64,2.64,0,0,0,0-3.73l-3.2-3.2a2.64,2.64,0,0,0-3.73,0l-4.6,4.59a2.65,2.65,0,0,1-2.48.71A18.51,18.51,0,0,1,17.06,31.28a2.65,2.65,0,0,1,.71-2.48l4.6-4.6A2.64,2.64,0,0,0,22.37,20.47Z"/><path class="cls-5" d="M37.12,50.38a25.53,25.53,0,0,1-25.5-25.5v-.34a8.76,8.76,0,0,1,2.58-6l-2.12,2.12a8.76,8.76,0,0,0-2.58,6V27A25.53,25.53,0,0,0,35,52.5h.34a8.72,8.72,0,0,0,6-2.58l2.12-2.12a8.72,8.72,0,0,1-6,2.58Z"/><path class="cls-6" d="M15.43,17.27l-2.12,2.12a2.64,2.64,0,0,1,3.73,0l3.2,3.2a2.64,2.64,0,0,1,0,3.73l2.13-2.12a2.63,2.63,0,0,0,0-3.73l-3.2-3.2A2.64,2.64,0,0,0,15.43,17.27Z"/><path class="cls-6" d="M37.8,39.64l-2.12,2.12a2.64,2.64,0,0,1,3.73,0l3.2,3.2a2.64,2.64,0,0,1,0,3.73l2.12-2.12a2.64,2.64,0,0,0,0-3.73l-3.2-3.2A2.64,2.64,0,0,0,37.8,39.64Z"/><rect class="cls-7" x="32" width="30" height="30" rx="2.5" ry="2.5"/><path class="cls-8" d="M59.5,0h-3A2.5,2.5,0,0,1,59,2.5v25A2.5,2.5,0,0,1,56.5,30h3A2.5,2.5,0,0,0,62,27.5V2.5A2.5,2.5,0,0,0,59.5,0Z"/><path class="cls-9" d="M34.5,30h3A2.5,2.5,0,0,1,35,27.5V2.5A2.5,2.5,0,0,1,37.5,0h-3A2.5,2.5,0,0,0,32,2.5v25A2.5,2.5,0,0,0,34.5,30Z"/><path class="cls-10" d="M55,9a1,1,0,0,0-1,1v5H50V10a1,1,0,0,0-2,0v6a1,1,0,0,0,1,1h5v3a1,1,0,0,0,2,0V10A1,1,0,0,0,55,9Z"/><path class="cls-10" d="M45,21H39a1,1,0,0,1-.91-.58,1,1,0,0,1,.15-1.07L44,12.66A2,2,0,0,0,40,13a1,1,0,0,1-2,0,4,4,0,0,1,8,0,1,1,0,0,1-.24.65L41.17,19H45a1,1,0,0,1,0,2Z"/></g></g></svg>