<svg xmlns="http://www.w3.org/2000/svg" viewBox="0 0 70.84 92"><defs><style>.cls-1{font-size:10px;fill:#1976d2;font-family:Poppins-Regular, Poppins Regular;}.cls-2{letter-spacing:-0.01em;}.cls-3{letter-spacing:0.01em;}.cls-4{letter-spacing:-0.01em;}.cls-5{fill:#34444c;}.cls-6{fill:#26a379;}.cls-7{fill:#33e0a6;}.cls-8{fill:#18664c;}.cls-9{fill:#ffc300;}.cls-10{fill:#d1a000;}.cls-11{fill:#f72250;}.cls-12{fill:#ffd766;}.cls-13{fill:#6b777c;}.cls-14{fill:#81d4fa;}.cls-15{fill:#4fc3f7;}.cls-16{fill:#b3e5fc;}.cls-17{fill:#b4193b;}.cls-18{fill:#f95e7f;}.cls-19{fill:#fafafa;}.cls-20{fill:#202b30;}</style></defs><title>Recurso 4</title><g id="Capa_2" data-name="Capa 2"><g id="Capa_1-2" data-name="Capa 1"><g id="Direct_Admission" data-name="Direct Admission"><text class="cls-1" transform="translate(0 89.5)">Di<tspan class="cls-2" x="9" y="0">r</tspan><tspan x="12.17" y="0">e</tspan><tspan class="cls-3" x="17.18" y="0">c</tspan><tspan x="21.79" y="0">t </tspan><tspan class="cls-4" x="27.22" y="0">A</tspan><tspan x="33.22" y="0">dmission</tspan></text><path class="cls-5" d="M57,32l-8.06,3-8-3a10,10,0,0,1-6.29-11.32L36,14H62l1.33,6.66A10,10,0,0,1,57,32Z"/><path class="cls-6" d="M40.92,32h16a10,10,0,0,1,10,10V55.5a0,0,0,0,1,0,0h-36a0,0,0,0,1,0,0V42A10,10,0,0,1,40.92,32Z"/><path class="cls-7" d="M43.92,32h-3a10,10,0,0,0-10,10V55.5h3V42A10,10,0,0,1,43.92,32Z"/><path class="cls-8" d="M53.92,32h3a10,10,0,0,1,10,10V55.5h-3V42A10,10,0,0,0,53.92,32Z"/><rect class="cls-8" x="36.92" y="43" width="1" height="12.5"/><rect class="cls-8" x="59.92" y="43" width="1" height="12.5"/><rect class="cls-8" x="48.42" y="41.5" width="1" height="5"/><path class="cls-9" d="M44.92,27h8a0,0,0,0,1,0,0v6a4,4,0,0,1-4,4h0a4,4,0,0,1-4-4V27A0,0,0,0,1,44.92,27Z"/><circle class="cls-9" cx="60.89" cy="16.5" r="3"/><circle class="cls-9" cx="36.97" cy="16.59" r="3"/><rect class="cls-9" x="36.98" y="5.59" width="23.91" height="23.9" rx="10" ry="10" transform="translate(-0.07 0.2) rotate(-0.23)"/><path class="cls-10" d="M60.88,15.54a10,10,0,0,0-10-10H48.08a10,10,0,0,1,9.8,10v3.91a10,10,0,0,1-10,10H47l3.91,0a10,10,0,0,0,10-10Z"/><circle class="cls-5" cx="43.97" cy="17.18" r="1.5"/><circle class="cls-5" cx="53.89" cy="17.14" r="1.5"/><path class="cls-5" d="M48.93,23.16A3.88,3.88,0,0,1,46.18,22a.5.5,0,0,1,0-.71.5.5,0,0,1,.71,0,2.92,2.92,0,0,0,2,.84h0a2.89,2.89,0,0,0,2-.86.5.5,0,0,1,.71,0,.48.48,0,0,1,0,.7A3.83,3.83,0,0,1,49,23.16Z"/><circle class="cls-11" cx="35.47" cy="19.59" r="1.5"/><circle class="cls-11" cx="62.39" cy="19.59" r="1.5"/><path class="cls-8" d="M48.92,42.5a6.51,6.51,0,0,0,6.5-6.5V32h-1v4a5.5,5.5,0,0,1-11,0V32h-1v4A6.51,6.51,0,0,0,48.92,42.5Z"/><path class="cls-12" d="M40,19.54V15.63a10,10,0,0,1,10-10h.91l-3.91,0a10,10,0,0,0-10,10v3.91a10,10,0,0,0,10,10h2.76A10,10,0,0,1,40,19.54Z"/><path class="cls-5" d="M56,4h0a6,6,0,0,1,6,6v4a0,0,0,0,1,0,0h0a6,6,0,0,1-6-6V4A0,0,0,0,1,56,4Z" transform="translate(117.91 17.96) rotate(-180)"/><path class="cls-5" d="M57.16,6.34a12,12,0,0,0-21.11,6.22L36,14h4.78a20,20,0,0,0,12.75-4.6Z"/><path class="cls-13" d="M49.45,2.1A12.65,12.65,0,0,0,47.93,2,12,12,0,0,0,36,12.56L36,14h3L39,12.56A12,12,0,0,1,49.45,2.1Z"/><path class="cls-14" d="M8.92,46.5h53a5,5,0,0,1,5,5V63a0,0,0,0,1,0,0h-63a0,0,0,0,1,0,0V51.5A5,5,0,0,1,8.92,46.5Z"/><path class="cls-15" d="M61.92,46.5h-3a5,5,0,0,1,5,5V63h3V51.5A5,5,0,0,0,61.92,46.5Z"/><path class="cls-16" d="M8.92,46.5h3a5,5,0,0,0-5,5V63h-3V51.5A5,5,0,0,1,8.92,46.5Z"/><rect class="cls-11" x="3.92" width="22" height="22" rx="2.5" ry="2.5"/><path class="cls-17" d="M23.42,0h-2a2.5,2.5,0,0,1,2.5,2.5v17a2.5,2.5,0,0,1-2.5,2.5h2a2.5,2.5,0,0,0,2.5-2.5V2.5A2.5,2.5,0,0,0,23.42,0Z"/><path class="cls-18" d="M6.42,22h2a2.5,2.5,0,0,1-2.5-2.5V2.5A2.5,2.5,0,0,1,8.42,0h-2a2.5,2.5,0,0,0-2.5,2.5v17A2.5,2.5,0,0,0,6.42,22Z"/><path class="cls-19" d="M13.29,16.39A1.53,1.53,0,0,1,12.22,16L8,11.71A1.51,1.51,0,0,1,8,9.59a1.49,1.49,0,0,1,2.12,0l3.19,3.18L20,6.05a1.5,1.5,0,1,1,2.12,2.12L14.35,16A1.53,1.53,0,0,1,13.29,16.39Z"/><path class="cls-11" d="M12.09,19.17h5.66a0,0,0,0,1,0,0v4.66a1,1,0,0,1-1,1H12.09a0,0,0,0,1,0,0V19.17a0,0,0,0,1,0,0Z" transform="translate(19.93 -4.11) rotate(45)"/><rect class="cls-5" x="8.92" y="34.75" width="28" height="18" rx="1" ry="1"/><path class="cls-20" d="M35.92,34.75h-3a1,1,0,0,1,1,1v16a1,1,0,0,1-1,1h3a1,1,0,0,0,1-1v-16A1,1,0,0,0,35.92,34.75Z"/><path class="cls-13" d="M9.92,52.75h3a1,1,0,0,1-1-1v-16a1,1,0,0,1,1-1h-3a1,1,0,0,0-1,1v16A1,1,0,0,0,9.92,52.75Z"/><rect class="cls-5" x="21.42" y="52.75" width="3" height="3"/><rect class="cls-5" x="18.92" y="55.75" width="8" height="3" rx="1" ry="1"/><rect class="cls-20" x="19.92" y="48.75" width="6" height="2" rx="1" ry="1"/><circle class="cls-20" cx="28.92" cy="49.75" r="1"/><circle class="cls-20" cx="31.92" cy="49.75" r="1"/></g></g></g></svg>