<svg xmlns="http://www.w3.org/2000/svg" viewBox="0 0 63 63"><defs><style>.cls-1{fill:#34444c;}.cls-2{fill:#26a379;}.cls-3{fill:#33e0a6;}.cls-4{fill:#18664c;}.cls-5{fill:#ffc300;}.cls-6{fill:#d1a000;}.cls-7{fill:#f72250;}.cls-8{fill:#ffd766;}.cls-9{fill:#6b777c;}.cls-10{fill:#81d4fa;}.cls-11{fill:#4fc3f7;}.cls-12{fill:#b3e5fc;}.cls-13{fill:#b4193b;}.cls-14{fill:#f95e7f;}.cls-15{fill:#fafafa;}.cls-16{fill:#202b30;}</style></defs><title>Recurso 5</title><g id="Capa_2" data-name="Capa 2"><g id="Capa_1-2" data-name="Capa 1"><path class="cls-1" d="M53.06,32,45,35l-8-3A10,10,0,0,1,30.7,20.67L32,14H58l1.34,6.66A10,10,0,0,1,53.06,32Z"/><path class="cls-2" d="M37,32H53A10,10,0,0,1,63,42V55.5a0,0,0,0,1,0,0H27a0,0,0,0,1,0,0V42A10,10,0,0,1,37,32Z"/><path class="cls-3" d="M40,32H37A10,10,0,0,0,27,42V55.5h3V42A10,10,0,0,1,40,32Z"/><path class="cls-4" d="M50,32h3A10,10,0,0,1,63,42V55.5H60V42A10,10,0,0,0,50,32Z"/><rect class="cls-4" x="33" y="43" width="1" height="12.5"/><rect class="cls-4" x="56" y="43" width="1" height="12.5"/><rect class="cls-4" x="44.5" y="41.5" width="1" height="5"/><path class="cls-5" d="M41,27h8a0,0,0,0,1,0,0v6a4,4,0,0,1-4,4h0a4,4,0,0,1-4-4V27a0,0,0,0,1,0,0Z"/><circle class="cls-5" cx="56.98" cy="16.5" r="3"/><circle class="cls-5" cx="33.05" cy="16.59" r="3"/><rect class="cls-5" x="33.06" y="5.59" width="23.91" height="23.9" rx="10" ry="10" transform="translate(-0.07 0.18) rotate(-0.23)"/><path class="cls-6" d="M57,15.54a10,10,0,0,0-10-10H44.16a10,10,0,0,1,9.8,10l0,3.91a10,10,0,0,1-10,10H43.1l3.92,0a10,10,0,0,0,10-10Z"/><circle class="cls-1" cx="40.05" cy="17.18" r="1.5"/><circle class="cls-1" cx="49.98" cy="17.14" r="1.5"/><path class="cls-1" d="M45,23.16A3.88,3.88,0,0,1,42.26,22a.5.5,0,0,1,0-.71.48.48,0,0,1,.7,0,2.92,2.92,0,0,0,2,.84h0a2.88,2.88,0,0,0,2-.86.5.5,0,0,1,.71,0,.48.48,0,0,1,0,.7A3.82,3.82,0,0,1,45,23.16Z"/><circle class="cls-7" cx="31.55" cy="19.59" r="1.5"/><circle class="cls-7" cx="58.48" cy="19.59" r="1.5"/><path class="cls-4" d="M45,42.5A6.51,6.51,0,0,0,51.5,36V32h-1v4a5.5,5.5,0,0,1-11,0V32h-1v4A6.51,6.51,0,0,0,45,42.5Z"/><path class="cls-8" d="M36.06,19.54V15.63a10,10,0,0,1,10-10h.91L43,5.6a10,10,0,0,0-10,10v3.91a10,10,0,0,0,10,10h2.76A10,10,0,0,1,36.06,19.54Z"/><path class="cls-1" d="M52,4h0a6,6,0,0,1,6,6v4a0,0,0,0,1,0,0h0a6,6,0,0,1-6-6V4A0,0,0,0,1,52,4Z" transform="translate(110.07 17.96) rotate(-180)"/><path class="cls-1" d="M53.24,6.34a12,12,0,0,0-21.11,6.22L32,14h4.78a20,20,0,0,0,12.75-4.6Z"/><path class="cls-9" d="M45.53,2.1A12.65,12.65,0,0,0,44,2,12,12,0,0,0,32.13,12.56L32,14h3l.1-1.42A12,12,0,0,1,45.53,2.1Z"/><path class="cls-10" d="M5,46.5H58a5,5,0,0,1,5,5V63a0,0,0,0,1,0,0H0a0,0,0,0,1,0,0V51.5A5,5,0,0,1,5,46.5Z"/><path class="cls-11" d="M58,46.5H55a5,5,0,0,1,5,5V63h3V51.5A5,5,0,0,0,58,46.5Z"/><path class="cls-12" d="M5,46.5H8a5,5,0,0,0-5,5V63H0V51.5A5,5,0,0,1,5,46.5Z"/><rect class="cls-7" width="22" height="22" rx="2.5" ry="2.5"/><path class="cls-13" d="M19.5,0h-2A2.5,2.5,0,0,1,20,2.5v17A2.5,2.5,0,0,1,17.5,22h2A2.5,2.5,0,0,0,22,19.5V2.5A2.5,2.5,0,0,0,19.5,0Z"/><path class="cls-14" d="M2.5,22h2A2.5,2.5,0,0,1,2,19.5V2.5A2.5,2.5,0,0,1,4.5,0h-2A2.5,2.5,0,0,0,0,2.5v17A2.5,2.5,0,0,0,2.5,22Z"/><path class="cls-15" d="M9.37,16.39A1.49,1.49,0,0,1,8.31,16L4.06,11.71a1.51,1.51,0,0,1,0-2.12,1.49,1.49,0,0,1,2.12,0l3.19,3.18,6.71-6.72A1.5,1.5,0,1,1,18.2,8.17L10.43,16A1.53,1.53,0,0,1,9.37,16.39Z"/><path class="cls-7" d="M8.17,19.17h5.66a0,0,0,0,1,0,0v4.66a1,1,0,0,1-1,1H8.17a0,0,0,0,1,0,0V19.17A0,0,0,0,1,8.17,19.17Z" transform="translate(18.78 -1.33) rotate(45)"/><rect class="cls-1" x="5" y="34.75" width="28" height="18" rx="1" ry="1"/><path class="cls-16" d="M32,34.75H29a1,1,0,0,1,1,1v16a1,1,0,0,1-1,1h3a1,1,0,0,0,1-1v-16A1,1,0,0,0,32,34.75Z"/><path class="cls-9" d="M6,52.75H9a1,1,0,0,1-1-1v-16a1,1,0,0,1,1-1H6a1,1,0,0,0-1,1v16A1,1,0,0,0,6,52.75Z"/><rect class="cls-1" x="17.5" y="52.75" width="3" height="3"/><rect class="cls-1" x="15" y="55.75" width="8" height="3" rx="1" ry="1"/><rect class="cls-16" x="16" y="48.75" width="6" height="2" rx="1" ry="1"/><circle class="cls-16" cx="25" cy="49.75" r="1"/><circle class="cls-16" cx="28" cy="49.75" r="1"/></g></g></svg>