<svg xmlns="http://www.w3.org/2000/svg" viewBox="0 0 63 63"><defs><style>.cls-1{fill:#81d4fa;}.cls-2{fill:#b3e5fc;}.cls-3{fill:#1976d2;}.cls-4{fill:#fafafa;}.cls-5{fill:#f72250;}.cls-6{fill:#f95e7f;}.cls-7{fill:#4fc3f7;}.cls-8{fill:#b4193b;}.cls-9{fill:#1565c0;}.cls-10{fill:#34444c;}.cls-11{fill:#cfd8dc;}.cls-12{fill:#eceff1;}.cls-13{fill:#b0bec5;}</style></defs><title>Recurso 8</title><g id="Capa_2" data-name="Capa 2"><g id="Capa_1-2" data-name="Capa 1"><path class="cls-1" d="M58,58H5a5,5,0,0,1-5-5V22a5,5,0,0,1,5-5H39.32a10,10,0,0,1,8.94,5.53L55,36h3a5,5,0,0,1,5,5V53A5,5,0,0,1,58,58Z"/><path class="cls-2" d="M3,53V22a5,5,0,0,1,5-5H5a5,5,0,0,0-5,5V53a5,5,0,0,0,5,5H8A5,5,0,0,1,3,53Z"/><circle class="cls-3" cx="14.5" cy="29" r="8"/><path class="cls-4" d="M10.5,27.5H13V25a1,1,0,0,1,1-1h1a1,1,0,0,1,1,1v2.5h2.5a1,1,0,0,1,1,1v1a1,1,0,0,1-1,1H16V33a1,1,0,0,1-1,1H14a1,1,0,0,1-1-1V30.5H10.5a1,1,0,0,1-1-1v-1A1,1,0,0,1,10.5,27.5Z"/><rect class="cls-3" x="26.5" y="21" width="9" height="15" rx="2.5" ry="2.5"/><path class="cls-3" d="M55,36,48.26,22.53a9.61,9.61,0,0,0-1-1.53H41a2.5,2.5,0,0,0-2.5,2.5v10A2.5,2.5,0,0,0,41,36Z"/><rect class="cls-5" y="41" width="63" height="4"/><rect class="cls-6" y="41" width="3" height="4"/><path class="cls-7" d="M44.3,21h3l.42.6a10,10,0,0,0-8.4-4.6h-3A10,10,0,0,1,44.3,21Z"/><path class="cls-7" d="M58,36H55a5,5,0,0,1,5,5V53a5,5,0,0,1-5,5h3a5,5,0,0,0,5-5V41A5,5,0,0,0,58,36Z"/><polygon class="cls-8" points="60 41 60 45 63 45 63 41 63 41 60 41 60 41"/><path class="cls-9" d="M47.3,21h-3a9.61,9.61,0,0,1,1,1.53L52,36h3L48.26,22.53A9.61,9.61,0,0,0,47.3,21Z"/><circle class="cls-10" cx="13" cy="54" r="9"/><circle class="cls-11" cx="13" cy="54" r="4"/><path class="cls-12" d="M13,58a4.09,4.09,0,0,0,1-.14,4,4,0,0,1,0-7.72A4.09,4.09,0,0,0,13,50a4,4,0,0,0,0,8Z"/><path class="cls-5" d="M36,10h0a4,4,0,0,0-4,4v3h8V14A4,4,0,0,0,36,10Z"/><circle class="cls-10" cx="50" cy="54" r="9"/><circle class="cls-11" cx="50" cy="54" r="4"/><path class="cls-13" d="M50,50a4.09,4.09,0,0,0-1,.14,4,4,0,0,1,0,7.72A4.09,4.09,0,0,0,50,58a4,4,0,0,0,0-8Z"/><rect class="cls-10" x="26.73" y="2.73" width="3" height="8" rx="1.5" ry="1.5" transform="translate(3.51 21.94) rotate(-45)"/><rect class="cls-10" x="42.27" y="2.73" width="3" height="8" rx="1.5" ry="1.5" transform="translate(69.96 42.44) rotate(-135)"/><rect class="cls-10" x="34.5" width="3" height="8" rx="1.5" ry="1.5"/></g></g></svg>