<svg xmlns="http://www.w3.org/2000/svg" viewBox="0 0 60 61"><defs><style>.cls-1{fill:#202b30;}.cls-2{fill:#13191c;}.cls-3{fill:#34444c;}.cls-4{fill:#81d4fa;}.cls-5{fill:#fafafa;}.cls-6{fill:#eceff1;}.cls-7{fill:#fff;}.cls-8{fill:#b3e5fc;}.cls-9{fill:#4fc3f7;}.cls-10{fill:#f72250;}.cls-11{fill:#6b777c;}.cls-12{fill:#1976d2;}.cls-13{fill:#1565c0;}.cls-14{fill:#1e88e5;}</style></defs><title>Recurso 7</title><g id="Capa_2" data-name="Capa 2"><g id="Capa_1-2" data-name="Capa 1"><rect class="cls-1" x="18.67" width="8" height="8" rx="1" ry="1"/><path class="cls-2" d="M25.67,0h-2a1,1,0,0,1,1,1V7a1,1,0,0,1-1,1h2a1,1,0,0,0,1-1V1A1,1,0,0,0,25.67,0Z"/><path class="cls-3" d="M19.67,8h2a1,1,0,0,1-1-1V1a1,1,0,0,1,1-1h-2a1,1,0,0,0-1,1V7A1,1,0,0,0,19.67,8Z"/><rect class="cls-4" y="7" width="46" height="54" rx="2.5" ry="2.5"/><path class="cls-5" d="M40,55H12.67L5,47.33V14a1,1,0,0,1,1-1H40a1,1,0,0,1,1,1V54A1,1,0,0,1,40,55Z"/><path class="cls-6" d="M39,13V55h1a1,1,0,0,0,1-1V14a1,1,0,0,0-1-1Z"/><path class="cls-7" d="M5,14V47.33H7V13H6A1,1,0,0,0,5,14Z"/><path class="cls-8" d="M3,58.5V9.5A2.5,2.5,0,0,1,5.5,7h-3A2.5,2.5,0,0,0,0,9.5v49A2.5,2.5,0,0,0,2.5,61h3A2.5,2.5,0,0,1,3,58.5Z"/><path class="cls-9" d="M43,9.5v49A2.5,2.5,0,0,1,40.5,61h3A2.5,2.5,0,0,0,46,58.5V9.5A2.5,2.5,0,0,0,43.5,7h-3A2.5,2.5,0,0,1,43,9.5Z"/><rect class="cls-10" x="10.67" y="23" width="4" height="4" rx="1" ry="1"/><rect class="cls-10" x="17.67" y="23.6" width="16" height="3" rx="1" ry="1"/><rect class="cls-3" x="10.67" y="32" width="4" height="4" rx="1" ry="1"/><rect class="cls-3" x="17.67" y="32.6" width="16" height="3" rx="1" ry="1"/><rect class="cls-3" x="10.67" y="41" width="4" height="4" rx="1" ry="1"/><rect class="cls-3" x="17.67" y="41.6" width="16" height="3" rx="1" ry="1"/><rect class="cls-3" x="13.67" y="4" width="18" height="6" rx="1" ry="1"/><path class="cls-1" d="M30.67,4h-2a1,1,0,0,1,1,1V9a1,1,0,0,1-1,1h2a1,1,0,0,0,1-1V5A1,1,0,0,0,30.67,4Z"/><path class="cls-11" d="M14.67,10h2a1,1,0,0,1-1-1V5a1,1,0,0,1,1-1h-2a1,1,0,0,0-1,1V9A1,1,0,0,0,14.67,10Z"/><path class="cls-6" d="M11.67,47.33H5L12.67,55V48.33A1,1,0,0,0,11.67,47.33Z"/><rect class="cls-12" x="36" width="24" height="24" rx="2.5" ry="2.5"/><path class="cls-13" d="M57.5,0h-3A2.5,2.5,0,0,1,57,2.5v19A2.5,2.5,0,0,1,54.5,24h3A2.5,2.5,0,0,0,60,21.5V2.5A2.5,2.5,0,0,0,57.5,0Z"/><path class="cls-14" d="M38.5,24h3A2.5,2.5,0,0,1,39,21.5V2.5A2.5,2.5,0,0,1,41.5,0h-3A2.5,2.5,0,0,0,36,2.5v19A2.5,2.5,0,0,0,38.5,24Z"/><path class="cls-5" d="M54,10H50V6a1,1,0,0,0-1-1H47a1,1,0,0,0-1,1v4H42a1,1,0,0,0-1,1v2a1,1,0,0,0,1,1h4v4a1,1,0,0,0,1,1h2a1,1,0,0,0,1-1V14h4a1,1,0,0,0,1-1V11A1,1,0,0,0,54,10Z"/></g></g></svg>