<svg xmlns="http://www.w3.org/2000/svg" viewBox="0 0 60 52"><defs><style>.cls-1{fill:#81d4fa;}.cls-2{fill:#4fc3f7;}.cls-3{fill:#b3e5fc;}.cls-4{fill:#fafafa;}.cls-5{fill:#eceff1;}.cls-6{fill:#fff;}.cls-7{fill:#1976d2;}.cls-8{fill:#1565c0;}.cls-9{fill:#1e88e5;}.cls-10{fill:#f72250;}.cls-11{fill:#ffc300;}</style></defs><title>Recurso 6</title><g id="Capa_2" data-name="Capa 2"><g id="Capa_1-2" data-name="Capa 1"><rect class="cls-1" y="8" width="60" height="44" rx="5" ry="5"/><path class="cls-2" d="M55,8H52a5,5,0,0,1,5,5V47a5,5,0,0,1-5,5h3a5,5,0,0,0,5-5V13A5,5,0,0,0,55,8Z"/><path class="cls-3" d="M5,8H8a5,5,0,0,0-5,5V47a5,5,0,0,0,5,5H5a5,5,0,0,1-5-5V13A5,5,0,0,1,5,8Z"/><path class="cls-4" d="M54,45.5A2.5,2.5,0,0,1,51.5,48H8.5A2.5,2.5,0,0,1,6,45.5v-31A2.5,2.5,0,0,1,8.5,12h43A2.5,2.5,0,0,1,54,14.5Z"/><path class="cls-5" d="M51.5,12h-2A2.5,2.5,0,0,1,52,14.5v31A2.5,2.5,0,0,1,49.5,48h2A2.5,2.5,0,0,0,54,45.5v-31A2.5,2.5,0,0,0,51.5,12Z"/><path class="cls-6" d="M8.5,12h2A2.5,2.5,0,0,0,8,14.5v31A2.5,2.5,0,0,0,10.5,48h-2A2.5,2.5,0,0,1,6,45.5v-31A2.5,2.5,0,0,1,8.5,12Z"/><path class="cls-7" d="M40,6H36A6,6,0,0,0,24,6H20a1,1,0,0,0-1,1v6a1,1,0,0,0,1,1H40a1,1,0,0,0,1-1V7A1,1,0,0,0,40,6ZM30,8a2,2,0,1,1,2-2A2,2,0,0,1,30,8Z"/><path class="cls-8" d="M40,6H38a1,1,0,0,1,1,1v6a1,1,0,0,1-1,1h2a1,1,0,0,0,1-1V7A1,1,0,0,0,40,6Z"/><path class="cls-9" d="M20,6h2a1,1,0,0,0-1,1v6a1,1,0,0,0,1,1H20a1,1,0,0,1-1-1V7A1,1,0,0,1,20,6Z"/><rect class="cls-7" x="31" y="21" width="14" height="3" rx="1.5" ry="1.5"/><rect class="cls-7" x="31" y="27" width="18" height="3" rx="1.5" ry="1.5"/><rect class="cls-7" x="31" y="36" width="18" height="3" rx="1.5" ry="1.5"/><rect class="cls-10" x="11" y="21" width="16" height="18" rx="2.5" ry="2.5"/><circle class="cls-11" cx="19" cy="29" r="4"/><path class="cls-7" d="M19,33h0a5,5,0,0,1,5,5v1a0,0,0,0,1,0,0H14a0,0,0,0,1,0,0V38A5,5,0,0,1,19,33Z"/></g></g></svg>