<svg xmlns="http://www.w3.org/2000/svg" viewBox="0 0 63 53"><defs><style>.cls-1{fill:#81d4fa;}.cls-2{fill:#4fc3f7;}.cls-3{fill:#b3e5fc;}.cls-4{fill:#29b6f6;}.cls-5{fill:#f72250;}.cls-6{fill:#1976d2;}.cls-7{fill:#fafafa;}.cls-8{fill:#33e0a6;}.cls-9{fill:#1565c0;}.cls-10{fill:#1e88e5;}</style></defs><title>Recurso 3</title><g id="Capa_2" data-name="Capa 2"><g id="Capa_1-2" data-name="Capa 1"><rect class="cls-1" x="17.5" y="4" width="28" height="45"/><rect class="cls-2" x="42.5" y="4" width="3" height="45"/><rect class="cls-3" x="17.5" y="4" width="3" height="45"/><path class="cls-2" d="M8,13h9.5a0,0,0,0,1,0,0V49a0,0,0,0,1,0,0H5.5a0,0,0,0,1,0,0V15.5A2.5,2.5,0,0,1,8,13Z"/><path class="cls-2" d="M45.5,13H55a2.5,2.5,0,0,1,2.5,2.5V49a0,0,0,0,1,0,0h-12a0,0,0,0,1,0,0V13A0,0,0,0,1,45.5,13Z"/><rect class="cls-4" x="45.5" y="13" width="3" height="36"/><rect class="cls-5" x="16" width="31" height="4" rx="1" ry="1"/><rect class="cls-6" x="23.5" y="37" width="16" height="12"/><circle class="cls-7" cx="31.5" cy="20" r="8"/><path class="cls-6" d="M35.5,18.5H33V16a1,1,0,0,0-1-1H31a1,1,0,0,0-1,1v2.5H27.5a1,1,0,0,0-1,1v1a1,1,0,0,0,1,1H30V24a1,1,0,0,0,1,1h1a1,1,0,0,0,1-1V21.5h2.5a1,1,0,0,0,1-1v-1A1,1,0,0,0,35.5,18.5Z"/><rect class="cls-8" y="49" width="63" height="4" rx="1" ry="1"/><rect class="cls-6" x="8.5" y="19" width="6" height="6" rx="1" ry="1"/><path class="cls-9" d="M13.5,19v6a1,1,0,0,0,1-1V20A1,1,0,0,0,13.5,19Z"/><rect class="cls-6" x="8.5" y="31" width="6" height="6" rx="1" ry="1"/><path class="cls-9" d="M13.5,31v6a1,1,0,0,0,1-1V32A1,1,0,0,0,13.5,31Z"/><rect class="cls-6" x="48.5" y="19" width="6" height="6" rx="1" ry="1"/><path class="cls-9" d="M53.5,19v6a1,1,0,0,0,1-1V20A1,1,0,0,0,53.5,19Z"/><rect class="cls-6" x="48.5" y="31" width="6" height="6" rx="1" ry="1"/><path class="cls-9" d="M53.5,31v6a1,1,0,0,0,1-1V32A1,1,0,0,0,53.5,31Z"/><rect class="cls-2" x="22.5" y="34" width="18" height="3" rx="1" ry="1"/><rect class="cls-10" x="31" y="37" width="1" height="12"/><rect class="cls-9" x="38.5" y="37" width="1" height="12"/></g></g></svg>