<svg xmlns="http://www.w3.org/2000/svg" viewBox="0 0 61 60"><defs><style>.cls-1{fill:#34444c;}.cls-2{fill:#1976d2;}.cls-3{fill:#4fc3f7;}.cls-4{fill:#29b6f6;}.cls-5{fill:#81d4fa;}.cls-6{fill:#b3e5fc;}.cls-7{fill:#33e0a6;}</style></defs><title>Recurso 12</title><g id="Capa_2" data-name="Capa 2"><g id="Capa_1-2" data-name="Capa 1"><path class="cls-1" d="M15,51H6A6,6,0,0,1,6,39H7.5a4,4,0,0,0,4-4V34a1,1,0,0,1,2,0v1a6,6,0,0,1-6,6H6a4,4,0,0,0,0,8h9a1,1,0,0,1,0,2Z"/><path class="cls-2" d="M16.5,56.5H13a4,4,0,0,1-4-4v-5a4,4,0,0,1,4-4h3.5a1.5,1.5,0,0,1,0,3H13a1,1,0,0,0-1,1v5a1,1,0,0,0,1,1h3.5a1.5,1.5,0,0,1,0,3Z"/><rect class="cls-3" x="15" y="40" width="12" height="20" rx="2.5" ry="2.5"/><path class="cls-4" d="M24.5,40h-2A2.5,2.5,0,0,1,25,42.5v15A2.5,2.5,0,0,1,22.5,60h2A2.5,2.5,0,0,0,27,57.5v-15A2.5,2.5,0,0,0,24.5,40Z"/><path class="cls-5" d="M17.5,60h2A2.5,2.5,0,0,1,17,57.5v-15A2.5,2.5,0,0,1,19.5,40h-2A2.5,2.5,0,0,0,15,42.5v15A2.5,2.5,0,0,0,17.5,60Z"/><path class="cls-1" d="M55,51H46a1,1,0,0,1,0-2h9a4,4,0,0,0,0-8H53.5a6,6,0,0,1-6-6V34a1,1,0,0,1,2,0v1a4,4,0,0,0,4,4H55a6,6,0,0,1,0,12Z"/><path class="cls-2" d="M48,56.5H44.5a1.5,1.5,0,0,1,0-3H48a1,1,0,0,0,1-1v-5a1,1,0,0,0-1-1H44.5a1.5,1.5,0,0,1,0-3H48a4,4,0,0,1,4,4v5A4,4,0,0,1,48,56.5Z"/><rect class="cls-3" x="34" y="40" width="12" height="20" rx="2.5" ry="2.5" transform="translate(80 100) rotate(-180)"/><path class="cls-5" d="M36.5,40h2A2.5,2.5,0,0,0,36,42.5v15A2.5,2.5,0,0,0,38.5,60h-2A2.5,2.5,0,0,1,34,57.5v-15A2.5,2.5,0,0,1,36.5,40Z"/><path class="cls-4" d="M43.5,60h-2A2.5,2.5,0,0,0,44,57.5v-15A2.5,2.5,0,0,0,41.5,40h2A2.5,2.5,0,0,1,46,42.5v15A2.5,2.5,0,0,1,43.5,60Z"/><rect class="cls-5" x="7.5" width="46" height="34" rx="5" ry="5"/><path class="cls-4" d="M48.5,0h-3a5,5,0,0,1,5,5V29a5,5,0,0,1-5,5h3a5,5,0,0,0,5-5V5A5,5,0,0,0,48.5,0Z"/><path class="cls-6" d="M12.5,0h3a5,5,0,0,0-5,5V29a5,5,0,0,0,5,5h-3a5,5,0,0,1-5-5V5A5,5,0,0,1,12.5,0Z"/><rect class="cls-1" x="13.5" y="6" width="25" height="22" rx="2.5" ry="2.5"/><rect class="cls-2" x="41.5" y="6" width="5" height="3" rx="1" ry="1"/><rect class="cls-2" x="41.5" y="12" width="5" height="3" rx="1" ry="1"/><rect class="cls-2" x="41.5" y="18" width="5" height="3" rx="1" ry="1"/><path class="cls-7" d="M27.5,23h-.13a1,1,0,0,1-.83-.71L23.82,13l-1.9,4.43A1,1,0,0,1,21,18H16.5a1,1,0,0,1,0-2h3.84l2.74-6.39A1,1,0,0,1,25,9.72l2.86,9.8,1.82-3A1,1,0,0,1,30.5,16h4a1,1,0,0,1,0,2H31.07l-2.71,4.51A1,1,0,0,1,27.5,23Z"/></g></g></svg>