<svg xmlns="http://www.w3.org/2000/svg" viewBox="0 0 57 52"><defs><style>.cls-1{fill:#cfd8dc;}.cls-2{fill:#34444c;}.cls-3{fill:#eceff1;}.cls-4{fill:#6b777c;}.cls-5{fill:#b0bec5;}.cls-6{fill:#202b30;}.cls-7{fill:#f72250;}.cls-8{fill:#fdd835;}.cls-9{fill:#33e0a6;}.cls-10{fill:#ffc300;}.cls-11{fill:#ffd766;}.cls-12{fill:#d1a000;}.cls-13{fill:#1b2428;}.cls-14{fill:#f95e7f;}</style></defs><title>Recurso 11</title><g id="Capa_2" data-name="Capa 2"><g id="Capa_1-2" data-name="Capa 1"><rect class="cls-1" width="50" height="42" rx="2.5" ry="2.5"/><path class="cls-2" d="M2.5,0h45A2.5,2.5,0,0,1,50,2.5V7a0,0,0,0,1,0,0H0A0,0,0,0,1,0,7V2.5A2.5,2.5,0,0,1,2.5,0Z"/><path class="cls-3" d="M3,39.5V2.5A2.5,2.5,0,0,1,5.5,0h-3A2.5,2.5,0,0,0,0,2.5v37A2.5,2.5,0,0,0,2.5,42h3A2.5,2.5,0,0,1,3,39.5Z"/><path class="cls-4" d="M3,2.5A2.5,2.5,0,0,1,5.5,0h-3A2.5,2.5,0,0,0,0,2.5V7H3Z"/><path class="cls-5" d="M47,39.5V2.5A2.5,2.5,0,0,0,44.5,0h3A2.5,2.5,0,0,1,50,2.5v37A2.5,2.5,0,0,1,47.5,42h-3A2.5,2.5,0,0,0,47,39.5Z"/><path class="cls-6" d="M47,2.5A2.5,2.5,0,0,0,44.5,0h3A2.5,2.5,0,0,1,50,2.5V7H47Z"/><circle class="cls-7" cx="6" cy="3.5" r="1.5"/><circle class="cls-8" cx="10.5" cy="3.5" r="1.5"/><circle class="cls-9" cx="15" cy="3.5" r="1.5"/><rect class="cls-2" x="30" y="12" width="14" height="8" rx="1" ry="1"/><rect class="cls-2" x="30" y="23" width="14" height="3" rx="1" ry="1"/><rect class="cls-10" x="7" y="18" width="16" height="16" rx="2.5" ry="2.5"/><rect class="cls-2" x="9" y="12" width="12" height="6" rx="1" ry="1"/><path class="cls-11" d="M10,31.5v-11A2.5,2.5,0,0,1,12.5,18h-3A2.5,2.5,0,0,0,7,20.5v11A2.5,2.5,0,0,0,9.5,34h3A2.5,2.5,0,0,1,10,31.5Z"/><path class="cls-4" d="M12,17V13a1,1,0,0,1,1-1H10a1,1,0,0,0-1,1v4a1,1,0,0,0,1,1h3A1,1,0,0,1,12,17Z"/><path class="cls-12" d="M20,31.5v-11A2.5,2.5,0,0,0,17.5,18h3A2.5,2.5,0,0,1,23,20.5v11A2.5,2.5,0,0,1,20.5,34h-3A2.5,2.5,0,0,0,20,31.5Z"/><path class="cls-13" d="M18,17V13a1,1,0,0,0-1-1h3a1,1,0,0,1,1,1v4a1,1,0,0,1-1,1H17A1,1,0,0,0,18,17Z"/><path class="cls-7" d="M39.41,35.41V46.35a1,1,0,0,0,1.71.71l1.72-1.72a1,1,0,0,1,1.41,0l6.37,6.37a1,1,0,0,0,1.41,0L56.71,47a1,1,0,0,0,0-1.41l-6.37-6.37a1,1,0,0,1,0-1.41l1.72-1.72a1,1,0,0,0-.71-1.71H40.41A1,1,0,0,0,39.41,35.41Z"/><path class="cls-14" d="M52.74,49.59l-6.37-6.37a1,1,0,0,0-1.41,0l-1.72,1.72a1,1,0,0,1-1.7-.71V34.41H40.41a1,1,0,0,0-1,1V46.35a1,1,0,0,0,1.71.71l1.72-1.72a1,1,0,0,1,1.41,0l6.37,6.37a1,1,0,0,0,1.41,0l2.12-2.12A1,1,0,0,1,52.74,49.59Z"/><path class="cls-7" d="M11,39h6a0,0,0,0,1,0,0v6a0,0,0,0,1,0,0H11a3,3,0,0,1-3-3v0A3,3,0,0,1,11,39Z"/><path class="cls-14" d="M9,42a3,3,0,0,1,3-3H11a3,3,0,0,0,0,6h1A3,3,0,0,1,9,42Z"/><path class="cls-10" d="M17,39h6a3,3,0,0,1,3,3v0a3,3,0,0,1-3,3H17a0,0,0,0,1,0,0V39A0,0,0,0,1,17,39Z"/><path class="cls-12" d="M25,42a3,3,0,0,1-3,3h1a3,3,0,0,0,0-6H22A3,3,0,0,1,25,42Z"/></g></g></svg>