<svg xmlns="http://www.w3.org/2000/svg" viewBox="0 0 56 56"><defs><style>.cls-1{fill:#1976d2;}.cls-2{fill:#1565c0;}.cls-3{fill:#1e88e5;}.cls-4{fill:#81d4fa;}.cls-5{fill:#b3e5fc;}.cls-6{fill:#29b6f6;}</style></defs><title>Recurso 10</title><g id="Capa_2" data-name="Capa 2"><g id="Capa_1-2" data-name="Capa 1"><circle class="cls-1" cx="28" cy="28" r="28"/><path class="cls-2" d="M47.8,8.2A27.92,27.92,0,0,0,26.5,0,28,28,0,0,1,26.5,56,28,28,0,0,0,47.8,8.2Z"/><path class="cls-3" d="M8.2,47.8A27.92,27.92,0,0,0,29.5,56,28,28,0,0,1,29.5,0,28,28,0,0,0,8.2,47.8Z"/><path class="cls-4" d="M41.5,22H34V14.5A2.5,2.5,0,0,0,31.5,12h-7A2.5,2.5,0,0,0,22,14.5V22H14.5A2.5,2.5,0,0,0,12,24.5v7A2.5,2.5,0,0,0,14.5,34H22v7.5A2.5,2.5,0,0,0,24.5,44h7A2.5,2.5,0,0,0,34,41.5V34h7.5A2.5,2.5,0,0,0,44,31.5v-7A2.5,2.5,0,0,0,41.5,22Z"/><path class="cls-5" d="M15,31.5v-7A2.5,2.5,0,0,1,17.5,22h-3A2.5,2.5,0,0,0,12,24.5v7A2.5,2.5,0,0,0,14.5,34h3A2.5,2.5,0,0,1,15,31.5Z"/><path class="cls-5" d="M25,14.5A2.5,2.5,0,0,1,27.5,12h-3A2.5,2.5,0,0,0,22,14.5V22h3Z"/><path class="cls-5" d="M25,41.5V34H22v7.5A2.5,2.5,0,0,0,24.5,44h3A2.5,2.5,0,0,1,25,41.5Z"/><path class="cls-6" d="M31,14.5V22h3V14.5A2.5,2.5,0,0,0,31.5,12h-3A2.5,2.5,0,0,1,31,14.5Z"/><path class="cls-6" d="M31,41.5A2.5,2.5,0,0,1,28.5,44h3A2.5,2.5,0,0,0,34,41.5V34H31Z"/><path class="cls-6" d="M41.5,22h-3A2.5,2.5,0,0,1,41,24.5v7A2.5,2.5,0,0,1,38.5,34h3A2.5,2.5,0,0,0,44,31.5v-7A2.5,2.5,0,0,0,41.5,22Z"/></g></g></svg>