<svg xmlns="http://www.w3.org/2000/svg" viewBox="0 0 63 63"><defs><style>.cls-1{fill:#ffc300;}.cls-2{fill:#ffd766;}.cls-3{fill:#d1a000;}.cls-4{fill:#34444c;}.cls-5{fill:#6b777c;}.cls-6{fill:#202b30;}.cls-7{fill:#cfd8dc;}.cls-8{fill:#81d4fa;}.cls-9{fill:#4fc3f7;}.cls-10{fill:#f72250;}</style></defs><title>Recurso 5</title><g id="Capa_2" data-name="Capa 2"><g id="Capa_1-2" data-name="Capa 1"><circle class="cls-1" cx="43.46" cy="16" r="3"/><circle class="cls-1" cx="19.5" cy="16.09" r="3"/><path class="cls-1" d="M27.5,24.5h8a0,0,0,0,1,0,0v6a4,4,0,0,1-4,4h0a4,4,0,0,1-4-4v-6a0,0,0,0,1,0,0Z"/><rect class="cls-1" x="19.54" y="3.09" width="23.91" height="23.9" rx="10" ry="10" transform="translate(-0.06 0.13) rotate(-0.23)"/><path class="cls-2" d="M22.55,17V13.13a10,10,0,0,1,10-10h.91l-3.91,0a10,10,0,0,0-10,10V17a10,10,0,0,0,10,10h2.76A10,10,0,0,1,22.55,17Z"/><path class="cls-3" d="M43.45,13a10,10,0,0,0-10-10H30.65a10,10,0,0,1,9.8,10V17a10,10,0,0,1-10,10h-.91l3.91,0a10,10,0,0,0,10-10Z"/><circle class="cls-4" cx="26.55" cy="14.68" r="1.5"/><circle class="cls-4" cx="36.47" cy="14.64" r="1.5"/><path class="cls-4" d="M29.11,19.67a.5.5,0,0,1-.5-.5.5.5,0,0,1,.5-.5l4.82,0h0a.51.51,0,0,1,.5.5.5.5,0,0,1-.5.5l-4.83,0Z"/><path class="cls-5" d="M40.46,10h0a3,3,0,0,1,3,3v3a0,0,0,0,1,0,0h-3a0,0,0,0,1,0,0V10A0,0,0,0,1,40.46,10Z" transform="translate(83.93 26) rotate(180)"/><path class="cls-5" d="M19.55,10h3a0,0,0,0,1,0,0v3a3,3,0,0,1-3,3h0a0,0,0,0,1,0,0V10A0,0,0,0,1,19.55,10Z"/><path class="cls-4" d="M19.55,1h3a0,0,0,0,1,0,0V7a3,3,0,0,1-3,3h0a0,0,0,0,1,0,0V1A0,0,0,0,1,19.55,1Z" transform="translate(42.09 11) rotate(-180)"/><path class="cls-4" d="M19.55,10h26a13.45,13.45,0,0,0-26,0Z"/><path class="cls-6" d="M32.55,0a12.32,12.32,0,0,0-1.5.1A13.69,13.69,0,0,1,42.55,10h3A13.64,13.64,0,0,0,32.55,0Z"/><path class="cls-1" d="M61.8,42.48,49.3,31.88a10,10,0,0,0-6.47-2.38H20.17a10,10,0,0,0-6.47,2.37L1.2,42.48A3.4,3.4,0,0,0,0,45.07H0a3.39,3.39,0,0,0,5.61,2.57L17.31,37.5,19.5,59h24l2.19-21.5,11.7,10.14A3.39,3.39,0,0,0,63,45.07h0A3.4,3.4,0,0,0,61.8,42.48Z"/><polygon class="cls-2" points="17.31 37.5 19.5 59 22.5 59 20.31 37.5 17.31 37.5"/><polygon class="cls-3" points="40.5 59 43.5 59 45.69 37.5 42.69 37.5 40.5 59"/><rect class="cls-7" x="30.64" y="42.49" width="4" height="12.5" transform="translate(-24.91 37.35) rotate(-45)"/><circle class="cls-4" cx="21.5" cy="37.6" r="12"/><circle class="cls-8" cx="21.5" cy="37.6" r="9"/><path class="cls-9" d="M27.86,31.24a9,9,0,0,0-7.36-2.57,8.9,8.9,0,0,1,5.36,2.57,9,9,0,0,1,0,12.73,8.9,8.9,0,0,1-5.36,2.57,9,9,0,0,0,7.36-15.3Z"/><rect class="cls-4" x="38.8" y="51.4" width="5" height="12" rx="1" ry="1" transform="translate(-28.49 46.02) rotate(-45)"/><circle class="cls-10" cx="21.5" cy="37.6" r="3"/></g></g></svg>