<svg xmlns="http://www.w3.org/2000/svg" viewBox="0 0 40 60.93"><defs><style>.cls-1{fill:#33e0a6;}.cls-2{fill:#26a379;}.cls-3{fill:#8feece;}.cls-4{fill:#1976d2;}.cls-5{fill:#fafafa;}.cls-6{fill:#eceff1;}</style></defs><title>Recurso 9</title><g id="Capa_2" data-name="Capa 2"><g id="Capa_1-2" data-name="Capa 1"><path class="cls-1" d="M38.54,16.46l-15-15a5,5,0,0,0-7.08,0l-15,15A5,5,0,0,0,0,20V55.93a5,5,0,0,0,5,5H35a5,5,0,0,0,5-5V20A5,5,0,0,0,38.54,16.46ZM20,12.93a3,3,0,1,1,3-3A3,3,0,0,1,20,12.93Z"/><path class="cls-2" d="M38.54,16.46l-15-15a5,5,0,0,0-5-1.21,5.15,5.15,0,0,1,2,1.21l15,15A5,5,0,0,1,37,20V55.93a5,5,0,0,1-5,5h3a5,5,0,0,0,5-5V20A5,5,0,0,0,38.54,16.46Z"/><path class="cls-3" d="M1.46,16.46l15-15a5,5,0,0,1,5-1.21,5.15,5.15,0,0,0-2,1.21l-15,15A5,5,0,0,0,3,20V55.93a5,5,0,0,0,5,5H5a5,5,0,0,1-5-5V20A5,5,0,0,1,1.46,16.46Z"/><circle class="cls-4" cx="20" cy="35.93" r="15"/><path class="cls-5" d="M28,32.93H23v-5a1,1,0,0,0-1-1H18a1,1,0,0,0-1,1v5H12a1,1,0,0,0-1,1v4a1,1,0,0,0,1,1h5v5a1,1,0,0,0,1,1h4a1,1,0,0,0,1-1v-5h5a1,1,0,0,0,1-1v-4A1,1,0,0,0,28,32.93Z"/><path class="cls-6" d="M21,43.93a1,1,0,0,1-1,1h2a1,1,0,0,0,1-1v-5H21Z"/><path class="cls-6" d="M21,27.93v5h2v-5a1,1,0,0,0-1-1H20A1,1,0,0,1,21,27.93Z"/><path class="cls-6" d="M28,32.93H26a1,1,0,0,1,1,1v4a1,1,0,0,1-1,1h2a1,1,0,0,0,1-1v-4A1,1,0,0,0,28,32.93Z"/></g></g></svg>